PathFileType	4	(X/Y/Z)	17_2_22_p1_0-225.trc
DataRate	CameraRate	NumFrames	NumMarkers	Units	OrigDataRate	OrigDataStartFrame	OrigNumFrames
59.0	59.0	5	27	m	59.0	56	226
Frame#	Time	RHip			RKnee			RAnkle			RBigToe			RSmallToe			RHeel			LHip			LKnee			LAnkle			LBigToe			LSmallToe			LHeel			Neck			Head			Nose			RShoulder			RElbow			RWrist			RThumb			RIndex			RPinky			LShoulder			LElbow			LWrist			LThumb			LIndex			LPinky			
		X1	Y1	Z1	X2	Y2	Z2	X3	Y3	Z3	X4	Y4	Z4	X5	Y5	Z5	X6	Y6	Z6	X7	Y7	Z7	X8	Y8	Z8	X9	Y9	Z9	X10	Y10	Z10	X11	Y11	Z11	X12	Y12	Z12	X13	Y13	Z13	X14	Y14	Z14	X15	Y15	Z15	X16	Y16	Z16	X17	Y17	Z17	X18	Y18	Z18	X19	Y19	Z19	X20	Y20	Z20	X21	Y21	Z21	X22	Y22	Z22	X23	Y23	Z23	X24	Y24	Z24	X25	Y25	Z25	X26	Y26	Z26	X27	Y27	Z27	
56	0.9491525423728814	0.24193712036071316	0.5769944374786907	0.8469269545393249	0.23081496555819692	0.5946966467031033	1.2451634052199327	0.22016960411807088	0.7570177622907516	1.707587439642541	0.23031161318139526	0.49338973252294344	1.7058040525236586	0.2799741682027311	0.5741836875029981	1.7350956599171385	0.20639321222996312	0.7975122466141996	1.7426905578727387	0.028035031155482178	0.5525140797010964	0.8406365107838772	0.03327102773782465	0.5958037422244389	1.253830927169942	0.029837242279287062	0.667347240536797	1.6826634122954751	0.08352462494966702	0.49578410285622465	1.7182836317243015	0.014005775360480532	0.5306997008272165	1.7291818602039828	0.04603706689809104	0.7192585697376843	1.7425853287426327	0.15604950501207945	0.40548962698542984	0.22578464578301438	0.14766374982056527	0.29629631656054	-0.020993516100927184	0.1466785244719245	0.27097298192624575	0.12726478327656368	0.2942625000752638	0.4469136154438938	0.29305701738962603	0.3858813592121919	0.4915219921267183	0.5545044404814629	0.214912270920401	0.39594959163275983	0.40471425759871954	0.16080410986229518	0.39863510264622826	0.28704922510162306	0.13422808124688596	0.34487559397716233	0.27812826092587145	0.11325425142203997	0.38132066557845806	0.32870976707201865	0.002677153341808434	0.4328777153338925	0.30191518178198096	-0.0674933916878299	0.5269196526169725	0.5683024784694032	-0.10128797570482125	0.5249301019043972	0.8068442250388308	-0.09640085296758191	0.424723301950792	0.8992528648788515	-0.11840518804319122	0.41315421093583365	0.9233181132033775	-0.13804360223455975	0.49433494618006996	0.9274519076426444
57	0.9661016949152542	0.24191001282997282	0.5768545262471856	0.8468041422994332	0.23489207510580914	0.5978326980020005	1.2458251627290884	0.22018650593548958	0.756951582392946	1.7075885857035924	0.23417822414368109	0.518438832038095	1.7178271946647221	0.2800518738022842	0.5748693358340288	1.7354421753695408	0.20639632405545735	0.7973034383614105	1.7424630314967904	0.02767516310142583	0.5506411221477179	0.8358650583076582	0.03326881906995049	0.5956870251053347	1.253792268680026	0.03431220542912791	0.672326614155177	1.6894240849273545	0.08359621211517801	0.4958591124063042	1.718415534470157	0.014023814969843345	0.5307100653128587	1.729230368765574	0.04610732143705698	0.7191926126346316	1.7423400097055566	0.15609795062656803	0.4055961848171317	0.22564969109021404	0.14754745293477137	0.2962339831942024	-0.021027325055348198	0.14687759957206845	0.2722518898150761	0.13396571351698677	0.29018447743887504	0.4455364631054146	0.2898057479107114	0.385661320125548	0.490406165412358	0.5507495461419876	0.211106304553516	0.39454855884319984	0.4046111903560182	0.16094050022929982	0.39945349914442824	0.2870135950941347	0.13557591088006576	0.35631438709241503	0.2781643660388104	0.10760558310756048	0.3932615368707283	0.32944918715249016	0.0027794491776109843	0.433187054091133	0.30189671086920106	-0.06756155225909873	0.5268607713595529	0.5684216947917627	-0.10129662695673101	0.5254892820570984	0.8068978899633859	-0.09414134109651519	0.4519226837979161	0.9016852828514228	-0.11906330767380545	0.42573658484591326	0.9250250562249362	-0.1376310153620594	0.509879113803955	0.9305722376717281
58	0.9830508474576272	0.2380947238732149	0.5743527056660995	0.8466235114942162	0.23487873793950195	0.5977468190844293	1.2458024874972435	0.2201915363985355	0.7570650755758866	1.7076323507330078	0.23425227246879615	0.5186219743287708	1.7178532606302503	0.28016798990714753	0.5746025282190014	1.735309738439688	0.20639221996008167	0.7974115308954227	1.7424916021608148	0.02735435255255937	0.5510953256179244	0.83234614159767	0.0332781477270651	0.5957542545807913	1.2539050545268722	0.03373711476791278	0.6735165500400697	1.685683782850718	0.08350313597246489	0.495862819662561	1.7182239874101626	0.014134937679386523	0.5306978913437187	1.7291033432659444	0.0467200274959287	0.7218055776688412	1.7470951189948725	0.15770944883033655	0.4170703055706852	0.22554581448874134	0.14758067795504215	0.29642486474103097	-0.020888931880972607	0.14685082099356947	0.2722582214200934	0.13399853371343157	0.29015537359252236	0.4454209020260538	0.2897568055105474	0.3857934827033526	0.4901729599668101	0.5505303679298549	0.214980103810921	0.3960868229666508	0.40436266483664457	0.17034315671059347	0.41456489715013106	0.28661333252947635	0.1358334563916341	0.35624570705553044	0.27810456279052553	0.11335391670143333	0.3811878399717922	0.3282190713761922	0.0036665941443186356	0.4459914316094042	0.3020061183943959	-0.06824898882928947	0.5271199833746243	0.5686884235338401	-0.10148428548512949	0.52626325364019	0.8067698019543076	-0.10134588567649722	0.46492227100433864	0.9015078551716511	-0.12550655867096	0.43828318166475877	0.92104665501858	-0.1341510845894046	0.5131213155009399	0.9307461015029087
59	1.0	0.23782566434096833	0.5746801453408611	0.8430907518358395	0.2354006345261051	0.5970546391748613	1.2496938003548677	0.2201404705606582	0.7569874234508102	1.7075964322437982	0.23234573698291455	0.5057878488363743	1.7117770391726375	0.28022491869561017	0.5746153198083751	1.7353268623347216	0.20633322100803686	0.797408983898954	1.742501528314424	0.027486005016590025	0.5509962222890925	0.8322574757291852	0.033353628252047685	0.5955495283880929	1.2538019119426667	0.034271233156263646	0.6724589794437008	1.6895037137594013	0.0834263618168735	0.4959370315351623	1.7182752553367837	0.014074900090496745	0.5307567231125356	1.7292267070473033	0.046071450960933756	0.7193666702161631	1.742445427712939	0.16157024968275485	0.4194042682861684	0.22184492923350135	0.14765378292098802	0.29641061351897124	-0.02105981584908575	0.14674529011710008	0.2722219768910102	0.13408213808371408	0.2941539100334167	0.44676557303402537	0.28950867892776305	0.3905128035778859	0.47711254534273956	0.5415394869576228	0.21474762039199738	0.3944875089458963	0.40050673657462166	0.1739636477986821	0.4156642077469847	0.28634198028480695	0.1352830837455697	0.3567983948855899	0.2772455191301394	0.11704227754428799	0.38357037154456475	0.3280730750892756	0.003735732571417335	0.4463027436135179	0.30197530605431083	-0.06803262531071587	0.5258031761280597	0.56046711810436	-0.098099120093225	0.5291420521366468	0.806482078871416	-0.09586850106499148	0.4960170228437449	0.9044680531192079	-0.12458820397969037	0.45211139823914515	0.9207446714107201	-0.14769536071591788	0.5707239678297393	0.9397109350023947
60	1.0169491525423728	0.2419108105230825	0.576640919843675	0.8467157157135459	0.23260490034946296	0.5845689666057144	1.2420836785445948	0.2200725731123324	0.7568884587410832	1.707541995842961	0.23323792965310755	0.5091497206280647	1.7167678605327064	0.2847578516063305	0.5794471688616406	1.7371087681355666	0.1996475998508904	0.8143796039672089	1.750863836190631	0.028292277458680258	0.5527296425721312	0.8329177424740877	0.03373424252408105	0.5946203832629651	1.2578062750822938	0.03431251564684373	0.6724031194185229	1.689736646237702	0.0824502533900457	0.48224047601460457	1.7115932244194303	0.021111640411325315	0.5170883671635872	1.7216946545113414	0.04610033527011667	0.7194757671724972	1.7424374211748999	0.1617563567307561	0.4179723690010748	0.22191305414635182	0.14772281594657125	0.29681723486623673	-0.020719251574266098	0.1416741005222161	0.2815127958058219	0.13052749396169505	0.29878090047370615	0.43334802564735836	0.28163128813847194	0.3906868348582302	0.4771541092290629	0.5412253804870352	0.21474806606451907	0.3945466409613744	0.40017488639785737	0.1629048905932411	0.41109375693870864	0.2869219862207148	0.1355117467986275	0.35615464405707276	0.27717379819881943	0.111650965634118	0.3954260157287506	0.328695712394723	0.00410204099221803	0.44607797316283077	0.2987084553205301	-0.06770767047262362	0.5239127374548891	0.5523732584710038	-0.1043973559318338	0.5566817356167125	0.8041054258432446	-0.0938097773536698	0.5234979250777243	0.9062905168910961	-0.13159560296331116	0.4659346926797433	0.9163872095728539	-0.14824680121278325	0.5878815968596147	0.9353747024531778
